<?xml version="1.0" encoding="iso-8859-1"?>
<!-- Generator: Adobe Illustrator 19.0.0, SVG Export Plug-In . SVG Version: 6.00 Build 0)  -->
<svg version="1.1" id="Capa_1" xmlns="http://www.w3.org/2000/svg" xmlns:xlink="http://www.w3.org/1999/xlink" x="0px" y="0px"
	 viewBox="0 0 490.667 490.667" style="enable-background:new 0 0 490.667 490.667;" xml:space="preserve">
<g>
	<path style="fill:#FFC107;" d="M64,0h64c17.673,0,32,14.327,32,32v42.667c0,17.673-14.327,32-32,32H64c-17.673,0-32-14.327-32-32
		V32C32,14.327,46.327,0,64,0z"/>
	<path style="fill:#FFC107;" d="M213.333,0h64c17.673,0,32,14.327,32,32v42.667c0,17.673-14.327,32-32,32h-64
		c-17.673,0-32-14.327-32-32V32C181.333,14.327,195.66,0,213.333,0z"/>
	<path style="fill:#FFC107;" d="M362.667,0h64c17.673,0,32,14.327,32,32v42.667c0,17.673-14.327,32-32,32h-64
		c-17.673,0-32-14.327-32-32V32C330.667,14.327,344.994,0,362.667,0z"/>
	<path style="fill:#FFC107;" d="M64,128h64c17.673,0,32,14.327,32,32v42.667c0,17.673-14.327,32-32,32H64c-17.673,0-32-14.327-32-32
		V160C32,142.327,46.327,128,64,128z"/>
	<path style="fill:#FFC107;" d="M213.333,128h64c17.673,0,32,14.327,32,32v42.667c0,17.673-14.327,32-32,32h-64
		c-17.673,0-32-14.327-32-32V160C181.333,142.327,195.66,128,213.333,128z"/>
	<path style="fill:#FFC107;" d="M362.667,128h64c17.673,0,32,14.327,32,32v42.667c0,17.673-14.327,32-32,32h-64
		c-17.673,0-32-14.327-32-32V160C330.667,142.327,344.994,128,362.667,128z"/>
	<path style="fill:#FFC107;" d="M64,256h64c17.673,0,32,14.327,32,32v42.667c0,17.673-14.327,32-32,32H64c-17.673,0-32-14.327-32-32
		V288C32,270.327,46.327,256,64,256z"/>
	<path style="fill:#FFC107;" d="M213.333,256h64c17.673,0,32,14.327,32,32v42.667c0,17.673-14.327,32-32,32h-64
		c-17.673,0-32-14.327-32-32V288C181.333,270.327,195.66,256,213.333,256z"/>
	<path style="fill:#FFC107;" d="M362.667,256h64c17.673,0,32,14.327,32,32v42.667c0,17.673-14.327,32-32,32h-64
		c-17.673,0-32-14.327-32-32V288C330.667,270.327,344.994,256,362.667,256z"/>
	<path style="fill:#FFC107;" d="M213.333,384h64c17.673,0,32,14.327,32,32v42.667c0,17.673-14.327,32-32,32h-64
		c-17.673,0-32-14.327-32-32V416C181.333,398.327,195.66,384,213.333,384z"/>
</g>
<path d="M128,106.667H64c-17.673,0-32-14.327-32-32V32C32,14.327,46.327,0,64,0h64c17.673,0,32,14.327,32,32v42.667
	C160,92.34,145.673,106.667,128,106.667z M64,21.333c-5.891,0-10.667,4.776-10.667,10.667v42.667
	c0,5.891,4.776,10.667,10.667,10.667h64c5.891,0,10.667-4.776,10.667-10.667V32c0-5.891-4.776-10.667-10.667-10.667H64z"/>
<path d="M277.333,106.667h-64c-17.673,0-32-14.327-32-32V32c0-17.673,14.327-32,32-32h64c17.673,0,32,14.327,32,32v42.667
	C309.333,92.34,295.006,106.667,277.333,106.667z M213.333,21.333c-5.891,0-10.667,4.776-10.667,10.667v42.667
	c0,5.891,4.776,10.667,10.667,10.667h64c5.891,0,10.667-4.776,10.667-10.667V32c0-5.891-4.776-10.667-10.667-10.667H213.333z"/>
<path d="M426.667,106.667h-64c-17.673,0-32-14.327-32-32V32c0-17.673,14.327-32,32-32h64c17.673,0,32,14.327,32,32v42.667
	C458.667,92.34,444.34,106.667,426.667,106.667z M362.667,21.333C356.776,21.333,352,26.109,352,32v42.667
	c0,5.891,4.776,10.667,10.667,10.667h64c5.891,0,10.667-4.776,10.667-10.667V32c0-5.891-4.776-10.667-10.667-10.667H362.667z"/>
<path d="M128,234.667H64c-17.673,0-32-14.327-32-32V160c0-17.673,14.327-32,32-32h64c17.673,0,32,14.327,32,32v42.667
	C160,220.34,145.673,234.667,128,234.667z M64,149.333c-5.891,0-10.667,4.776-10.667,10.667v42.667
	c0,5.891,4.776,10.667,10.667,10.667h64c5.891,0,10.667-4.776,10.667-10.667V160c0-5.891-4.776-10.667-10.667-10.667H64z"/>
<path d="M277.333,234.667h-64c-17.673,0-32-14.327-32-32V160c0-17.673,14.327-32,32-32h64c17.673,0,32,14.327,32,32v42.667
	C309.333,220.34,295.006,234.667,277.333,234.667z M213.333,149.333c-5.891,0-10.667,4.776-10.667,10.667v42.667
	c0,5.891,4.776,10.667,10.667,10.667h64c5.891,0,10.667-4.776,10.667-10.667V160c0-5.891-4.776-10.667-10.667-10.667H213.333z"/>
<path d="M426.667,234.667h-64c-17.673,0-32-14.327-32-32V160c0-17.673,14.327-32,32-32h64c17.673,0,32,14.327,32,32v42.667
	C458.667,220.34,444.34,234.667,426.667,234.667z M362.667,149.333c-5.891,0-10.667,4.776-10.667,10.667v42.667
	c0,5.891,4.776,10.667,10.667,10.667h64c5.891,0,10.667-4.776,10.667-10.667V160c0-5.891-4.776-10.667-10.667-10.667H362.667z"/>
<path d="M128,362.667H64c-17.673,0-32-14.327-32-32V288c0-17.673,14.327-32,32-32h64c17.673,0,32,14.327,32,32v42.667
	C160,348.34,145.673,362.667,128,362.667z M64,277.333c-5.891,0-10.667,4.776-10.667,10.667v42.667
	c0,5.891,4.776,10.667,10.667,10.667h64c5.891,0,10.667-4.776,10.667-10.667V288c0-5.891-4.776-10.667-10.667-10.667H64z"/>
<path d="M277.333,362.667h-64c-17.673,0-32-14.327-32-32V288c0-17.673,14.327-32,32-32h64c17.673,0,32,14.327,32,32v42.667
	C309.333,348.34,295.006,362.667,277.333,362.667z M213.333,277.333c-5.891,0-10.667,4.776-10.667,10.667v42.667
	c0,5.891,4.776,10.667,10.667,10.667h64c5.891,0,10.667-4.776,10.667-10.667V288c0-5.891-4.776-10.667-10.667-10.667H213.333z"/>
<path d="M426.667,362.667h-64c-17.673,0-32-14.327-32-32V288c0-17.673,14.327-32,32-32h64c17.673,0,32,14.327,32,32v42.667
	C458.667,348.34,444.34,362.667,426.667,362.667z M362.667,277.333c-5.891,0-10.667,4.776-10.667,10.667v42.667
	c0,5.891,4.776,10.667,10.667,10.667h64c5.891,0,10.667-4.776,10.667-10.667V288c0-5.891-4.776-10.667-10.667-10.667H362.667z"/>
<path d="M277.333,490.667h-64c-17.673,0-32-14.327-32-32V416c0-17.673,14.327-32,32-32h64c17.673,0,32,14.327,32,32v42.667
	C309.333,476.34,295.006,490.667,277.333,490.667z M213.333,405.333c-5.891,0-10.667,4.776-10.667,10.667v42.667
	c0,5.891,4.776,10.667,10.667,10.667h64c5.891,0,10.667-4.776,10.667-10.667V416c0-5.891-4.776-10.667-10.667-10.667H213.333z"/>
<g>
</g>
<g>
</g>
<g>
</g>
<g>
</g>
<g>
</g>
<g>
</g>
<g>
</g>
<g>
</g>
<g>
</g>
<g>
</g>
<g>
</g>
<g>
</g>
<g>
</g>
<g>
</g>
<g>
</g>
</svg>
