<svg height="512" viewBox="0 0 58 58" width="512" xmlns="http://www.w3.org/2000/svg"><g id="Page-1" fill="none" fill-rule="evenodd"><g id="023---Megaphone" fill-rule="nonzero"><path id="Shape" d="m26 39h-13c-2.209139 0-4-1.790861-4-4l17-3z" fill="#e57e25"/><path id="Shape" d="m24 45h-4c-.5522847 0-1-.4477153-1-1s.4477153-1 1-1h4c.5522847 0 1-.4477153 1-1v-8c0-.5522847.4477153-1 1-1s1 .4477153 1 1v8c0 1.6568542-1.3431458 3-3 3z" fill="#f29c1f"/><path id="Shape" d="m53 17.083c2.8893814.4856527 5.0054594 2.9870881 5.0054594 5.917s-2.116078 5.4313473-5.0054594 5.917l-3-5.917z" fill="#f29c1f"/><path id="Shape" d="m16 50h-3c-6.62444695-.0071648-11.99283515-5.375553-12-12v-9c0-.5522847.44771525-1 1-1s1 .4477153 1 1v9c.00606237 5.5203344 4.47966557 9.9939376 10 10h3c.5522847 0 1 .4477153 1 1s-.4477153 1-1 1z" fill="#7f8c8d"/><path id="Shape" d="m22.016 50c-.364 0-.731-.016-1.1-.048-.3560152-.0310821-.6684046-.249735-.8194943-.5735942s-.1179255-.7037229.087-.9965.5504791-.4539879.9064943-.4229058c2.7988407.2557557 5.5761098-.6780812 7.6518429-2.5728773 2.075733-1.8947961 3.2582951-4.575621 3.2581571-7.3861227v-4c0-.5522847.4477153-1 1-1s1 .4477153 1 1v4c-.0031531 3.3653496-1.4153536 6.5756214-3.894 8.852-2.2028464 2.0325433-5.0927208 3.1570581-8.09 3.148z" fill="#7f8c8d"/><rect id="Rectangle-path" fill="#95a5a5" height="16" rx="2.5" width="5" y="15"/><path id="Shape" d="m28 35c5 0 13 1 19 7l3-19-3-19c-6 6-14 7-19 7l-3 12z" fill="#f29c1f"/><rect id="Rectangle-path" fill="#f0c419" height="46" rx="2" width="6" x="47"/><path id="Shape" d="m21 39s0 9 4.009 14.9c.3748768.5439457.4611677 1.2364471.2312411 1.8557559-.2299266.6193087-.7472219 1.0877207-1.3862411 1.2552441l-3.681.932c-.7593763.1905743-1.5601242-.0794681-2.049-.691-5.124-6.406-5.124-18.252-5.124-18.252z" fill="#95a5a5"/><path id="Shape" d="m20 54c-.3999561-.0000442-.7614173-.2383962-.919-.606-1.2448318-2.9601488-2.1181493-6.0631131-2.6-9.238-.0861564-.5456573.2863427-1.0578436.832-1.144s1.0578436.2863427 1.144.832c.4560138 3.0110592 1.282967 5.9540991 2.462 8.762.1324388.3089489.1007989.6637672-.0842148.9444083-.1850137.280641-.4986462.4495546-.8347852.4495917z" fill="#7f8c8d"/><path id="Shape" d="m15 7h6c.5522847 0 1 .44771525 1 1v4h-10v-2c0-1.65685425 1.3431458-3 3-3z" fill="#f29c1f"/><path id="Shape" d="m41 17h-8c-.5522847 0-1-.4477153-1-1s.4477153-1 1-1h8c.5522847 0 1 .4477153 1 1s-.4477153 1-1 1z" fill="#e57e25"/><path id="Shape" d="m36 21h-3c-.5522847 0-1-.4477153-1-1s.4477153-1 1-1h3c.5522847 0 1 .4477153 1 1s-.4477153 1-1 1z" fill="#e57e25"/><path id="Shape" d="m9 11h19v24h-19c-2.209139 0-4-1.790861-4-4v-16c0-2.209139 1.790861-4 4-4z" fill="#f0c419"/><circle id="Oval" cx="12" cy="18" fill="#f3d55b" r="3"/><path id="Shape" d="m15 26h-6c-.55228475 0-1-.4477153-1-1s.44771525-1 1-1h6c.5522847 0 1 .4477153 1 1s-.4477153 1-1 1z" fill="#f29c1f"/></g></g></svg>