<svg height="512pt" viewBox="-18 0 511 512" width="512pt" xmlns="http://www.w3.org/2000/svg"><g fill="#dce1eb"><path d="m122.925781 368.335938c-7.847656 0-15.363281 6.898437-15 15 .363281 8.128906 6.589844 15 15 15 7.847657 0 15.363281-6.898438 15-15-.363281-8.125-6.589843-15-15-15zm0 0"/><path d="m323.207031 368.335938c-7.847656 0-15.363281 6.898437-15 15 .363281 8.128906 6.589844 15 15 15 7.84375 0 15.363281-6.898438 15-15-.363281-8.125-6.59375-15-15-15zm0 0"/><path d="m122.925781 478.695312c-7.847656 0-15.363281 6.898438-15 15 .363281 8.125 6.589844 15 15 15 7.847657 0 15.363281-6.898437 15-15-.363281-8.128906-6.589843-15-15-15zm0 0"/><path d="m256.445312 478.695312c-7.84375 0-15.363281 6.898438-15 15 .363282 8.125 6.589844 15 15 15 7.847657 0 15.363282-6.898437 15-15-.363281-8.128906-6.589843-15-15-15zm0 0"/><path d="m323.207031 478.695312c-7.847656 0-15.363281 6.898438-15 15 .363281 8.125 6.589844 15 15 15 7.84375 0 15.363281-6.898437 15-15-.363281-8.128906-6.59375-15-15-15zm0 0"/><path d="m87.21875 422.292969c-7.847656 0-15.363281 6.898437-15 15 .363281 8.125 6.589844 15 15 15 7.84375 0 15.363281-6.898438 15-15-.363281-8.128907-6.589844-15-15-15zm0 0"/><path d="m361.441406 422.292969c-7.84375 0-15.363281 6.898437-15 15 .363282 8.125 6.589844 15 15 15 7.847656 0 15.363282-6.898438 15-15-.363281-8.128907-6.589844-15-15-15zm0 0"/><path d="m153.976562 422.292969c-7.84375 0-15.363281 6.898437-15 15 .367188 8.125 6.59375 15 15 15 7.847657 0 15.363282-6.898438 15-15-.363281-8.128907-6.589843-15-15-15zm0 0"/><path d="m287.496094 422.292969c-7.84375 0-15.359375 6.898437-15 15 .367187 8.125 6.59375 15 15 15 7.847656 0 15.363281-6.898438 15-15-.363282-8.128907-6.589844-15-15-15zm0 0"/></g><path d="m323.207031 368.335938c-7.847656 0-15.363281 6.898437-15 15 .363281 8.128906 6.589844 15 15 15 7.84375 0 15.363281-6.898438 15-15-.363281-8.125-6.59375-15-15-15zm0 0" fill="#b6c4cf"/><path d="m256.445312 478.695312c-7.84375 0-15.363281 6.898438-15 15 .363282 8.125 6.589844 15 15 15 7.847657 0 15.363282-6.898437 15-15-.363281-8.128906-6.589843-15-15-15zm0 0" fill="#b6c4cf"/><path d="m323.207031 478.695312c-7.847656 0-15.363281 6.898438-15 15 .363281 8.125 6.589844 15 15 15 7.84375 0 15.363281-6.898437 15-15-.363281-8.128906-6.59375-15-15-15zm0 0" fill="#b6c4cf"/><path d="m361.441406 422.292969c-7.84375 0-15.363281 6.898437-15 15 .363282 8.125 6.589844 15 15 15 7.847656 0 15.363282-6.898438 15-15-.363281-8.128907-6.589844-15-15-15zm0 0" fill="#b6c4cf"/><path d="m287.496094 422.292969c-7.84375 0-15.359375 6.898437-15 15 .367187 8.125 6.59375 15 15 15 7.847656 0 15.363281-6.898438 15-15-.363282-8.128907-6.589844-15-15-15zm0 0" fill="#b6c4cf"/><path d="m388.167969 348.511719h-282.742188c-57.855469 0-104.925781-47.070313-104.925781-104.925781v-8.046876c0-53.132812 39.703125-97.171874 90.996094-104.003906v-31.5625c0-55.125 44.851562-99.972656 99.976562-99.972656h1.714844c50.476562 0 92.332031 37.601562 99.035156 86.265625 47.570313 3.164063 86.082032 39.957031 91.925782 86.753906h4.019531c48.382812 0 87.746093 39.363281 87.746093 87.746094s-39.363281 87.746094-87.746093 87.746094zm0 0" fill="#00aadf"/><path d="m388.167969 173.019531h-4.019531c-5.84375-46.796875-44.359376-83.589843-91.925782-86.753906-4.945312-35.90625-29.042968-65.773437-61.609375-78.972656v341.21875h157.554688c48.382812 0 87.746093-39.363281 87.746093-87.746094s-39.363281-87.746094-87.746093-87.746094zm0 0" fill="#007fc5"/><path d="m283.882812 148.746094-18.519531 140.820312h51.496094l-124.328125 222.433594 18.519531-130.585938h-51.496093zm0 0" fill="#ffda2d"/><path d="m230.613281 248.429688.949219 193.742187 85.296875-152.605469h-51.496094l18.519531-140.820312zm0 0" fill="#fdbf00"/></svg>