<svg id="Capa_1" enable-background="new 0 0 510.389 510.389" height="512" viewBox="0 0 510.389 510.389" width="512" xmlns="http://www.w3.org/2000/svg"><g id="XMLID_203_"><path id="XMLID_923_" d="m352.573 11.033c-11.636 0-22.857 3.203-32.59 9.179-9.732-5.977-20.954-9.179-32.59-9.179-11.635 0-22.856 3.203-32.589 9.179-9.732-5.976-20.955-9.179-32.59-9.179s-22.857 3.203-32.59 9.179c-9.732-5.976-20.955-9.179-32.589-9.179-34.422 0-62.426 28.004-62.426 62.426s28.004 62.426 62.426 62.426h20.167l.008 95.748 77.113 69.853 78.483-69.77v-95.831h19.767c34.422 0 62.426-28.004 62.426-62.426s-28.004-62.426-62.426-62.426z" fill="#cff3fc"/><path id="XMLID_95_" d="m352.573 11.033c-11.636 0-22.857 3.203-32.59 9.179-9.732-5.977-20.954-9.179-32.59-9.179-11.555 0-22.7 3.162-32.386 9.059v280.785l77.799-69.161v-95.831h19.767c34.422 0 62.426-28.004 62.426-62.426s-28.004-62.426-62.426-62.426z" fill="#a8ebfa"/><path id="XMLID_2437_" d="m240.007 167.888h30v77.274h-30z" fill="#a8ebfa"/><path id="XMLID_39_" d="m255.007 167.888h15v77.274h-15z" fill="#75e2f8"/><path id="XMLID_286_" d="m461.891 245.188h-33.479v98.646h33.479c26.742 0 48.498-21.756 48.498-48.498v-1.65c0-26.742-21.756-48.498-48.498-48.498z" fill="#ffcdbe"/><path id="XMLID_911_" d="m48.498 245.188c-26.742 0-48.498 21.756-48.498 48.498v1.65c0 26.742 21.756 48.498 48.498 48.498h33.479v-98.646z" fill="#ffdecf"/><path id="XMLID_375_" d="m395.609 245.163h-30v-34.646c0-46.403 37.752-84.155 84.155-84.155v30c-29.861 0-54.155 24.294-54.155 54.155z" fill="#75e2f8"/><path id="XMLID_349_" d="m144.415 245.163h-30v-34.646c0-29.861-24.294-54.155-54.155-54.155v-30c46.403 0 84.155 37.752 84.155 84.155z" fill="#a8ebfa"/><path id="XMLID_2441_" d="m380.609 229.407-62.803-20.182-62.799 20.182-62.798-20.182-62.795 20.182-77.797-25.002v91.554c0 112.153 91.244 203.397 203.398 203.397s203.397-91.244 203.397-203.397v-91.553z" fill="#ffeee4"/><path id="XMLID_41_" d="m380.609 229.407-62.803-20.182-62.799 20.182v269.948h.008c112.154 0 203.397-91.244 203.397-203.397v-91.553z" fill="#ffdecf"/><path id="XMLID_348_" d="m286.432 402.567h-58.595c-15.092 0-27.327-12.235-27.327-27.327v-1.346c0-15.092 12.235-27.327 27.327-27.327h58.595c15.092 0 27.327 12.235 27.327 27.327v1.346c0 15.092-12.235 27.327-27.327 27.327z" fill="#ffece2"/><path id="XMLID_70_" d="m286.432 346.566h-31.425v56h31.425c15.092 0 27.327-12.235 27.327-27.327v-1.346c0-15.092-12.235-27.327-27.327-27.327z" fill="#ecdfda"/><path id="XMLID_376_" d="m286.432 417.567h-58.595c-23.339 0-42.327-18.988-42.327-42.327v-1.347c0-23.339 18.988-42.327 42.327-42.327h58.595c23.339 0 42.327 18.988 42.327 42.327v1.347c0 23.339-18.988 42.327-42.327 42.327zm-58.595-56.001c-6.797 0-12.327 5.53-12.327 12.327v1.347c0 6.797 5.53 12.327 12.327 12.327h58.595c6.797 0 12.327-5.53 12.327-12.327v-1.347c0-6.797-5.53-12.327-12.327-12.327z" fill="#ffb8b8"/><path id="XMLID_42_" d="m192.81 311.116c7.846 0 15.363-6.899 15-15-.364-8.127-6.591-15-15-15-7.846 0-15.363 6.899-15 15 .364 8.127 6.59 15 15 15z" fill="#f0afa2"/><path id="XMLID_44_" d="m321.459 309.602c7.846 0 15.363-6.899 15-15-.364-8.127-6.591-15-15-15-7.846 0-15.363 6.899-15 15 .364 8.127 6.591 15 15 15z" fill="#d68778"/><path id="XMLID_74_" d="m286.432 331.566h-31.425v30h31.425c6.797 0 12.327 5.53 12.327 12.327v1.347c0 6.797-5.53 12.327-12.327 12.327h-31.425v30h31.425c23.339 0 42.327-18.988 42.327-42.327v-1.347c0-23.339-18.988-42.327-42.327-42.327z" fill="#ff8597"/></g></svg>