<svg height="512" viewBox="0 0 64 64" width="512" xmlns="http://www.w3.org/2000/svg"><g id="Filled_outline" data-name="Filled outline"><path d="m3 3h58v58h-58z" fill="#f98c96"/><path d="m7 7h17v16h-17z" fill="#32b1cc"/><path d="m40 7h17v16h-17z" fill="#32b1cc" transform="matrix(-1 0 0 -1 97 30)"/><path d="m24 7h16v16h-16z" fill="#ffd782"/><path d="m7 41h17v16h-17z" fill="#32b1cc"/><path d="m24 41h16v16h-16z" fill="#ffd782" transform="matrix(-1 0 0 -1 64 98)"/><path d="m24 23h16v18h-16z" fill="#32b1cc"/><path d="m7 23h17v18h-17z" fill="#ffd782"/><path d="m40 23h17v18h-17z" fill="#ffd782"/><path d="m40 41h17v16h-17z" fill="#32b1cc"/><g fill="#f4f4e6"><path d="m11 45h2v2h-2z"/><path d="m46 28h2v2h-2z"/><path d="m50 31h2v2h-2z"/></g><path d="m58 58v-52h-51a1 1 0 0 0 -1 1v51zm-17-50h15v14h-15zm0 16h15v16h-15zm0 18h15v14h-15zm-16-34h14v14h-14zm0 16h14v16h-14zm0 18h14v14h-14zm-17-34h15v14h-15zm0 16h15v16h-15zm0 18h15v14h-15z"/><path d="m61 2h-58a1 1 0 0 0 -1 1v58a1 1 0 0 0 1 1h58a1 1 0 0 0 1-1v-58a1 1 0 0 0 -1-1zm-1 58h-56v-56h56z"/><path d="m19 15h-1v-2a1 1 0 0 0 -2 0v2h-3v-4a1 1 0 0 0 -2 0v5a1 1 0 0 0 1 1h4v3a1 1 0 0 0 2 0v-3h1a1 1 0 0 0 0-2z"/><path d="m51 10h-6a1 1 0 0 0 0 2h5v2h-4a1 1 0 0 0 0 2h4v2h-5a1 1 0 0 0 0 2h6a1 1 0 0 0 1-1v-8a1 1 0 0 0 -1-1z"/><path d="m35 29a1 1 0 0 0 0-2h-6a1 1 0 0 0 -1 1v4a1 1 0 0 0 1 1h4a1 1 0 0 1 1 1v1a1 1 0 0 1 -1 1h-4a1 1 0 0 0 0 2h4a3 3 0 0 0 3-3v-1a3 3 0 0 0 -3-3h-3v-2z"/><path d="m52 44h-7a1 1 0 0 0 0 2h5.382l-3.277 6.553a1 1 0 0 0 1.79.894l4-8a1 1 0 0 0 -.895-1.447z"/><path d="m11 45h2v2h-2z"/><path d="m46 28h2v2h-2z"/><path d="m50 31h2v2h-2z"/></g></svg>